<svg width="146" height="149" viewBox="0 0 146 149" fill="none" xmlns="http://www.w3.org/2000/svg">
<g opacity="0.64">
<path d="M65.2601 143.586L62.0887 142.318C60.644 141.719 60.1859 140.626 60.6792 139.287C61.2078 137.913 62.3354 137.42 63.7801 138.019L66.0001 138.9L67.1629 135.905L68.1143 136.292L65.2601 143.586ZM65.6829 139.71L63.7801 138.935C62.6877 138.477 62.0182 138.794 61.6659 139.64C61.3135 140.485 61.6306 141.155 62.723 141.613L64.6258 142.388L65.6829 139.71Z" fill="#FFFCF6"/>
<path d="M55.8163 139.358L52.6802 137.42C51.4116 136.645 51.0945 135.482 51.7288 134.425C52.2221 133.65 52.9973 133.156 53.9135 133.438C53.2087 132.804 53.4201 132.17 53.7725 131.465C54.1249 130.76 54.6182 130.055 54.5125 129.386L55.4991 130.02C55.5696 130.443 55.0058 131.077 54.7239 131.782C54.442 132.487 54.2306 133.121 55.0763 133.685L57.261 135.024L59.0229 132.205L59.9038 132.733L55.8163 139.358ZM54.9706 134.636C54.1601 134.108 53.3144 133.896 52.7154 134.848C52.3278 135.517 52.363 136.187 53.1735 136.715L55.3934 138.089L56.8029 135.764L54.9706 134.636Z" fill="#FFFCF6"/>
<path d="M46.9009 133.332L42.8838 129.737L43.4828 129.068L46.7247 131.957L48.3809 130.09L45.3504 127.412L45.9495 126.742L48.9799 129.491L50.777 127.482L47.4999 124.557L48.099 123.888L52.1513 127.517L46.9009 133.332Z" fill="#FFFCF6"/>
<path d="M39.6077 126.39L38.762 125.263L42.4619 119.307L35.7667 121.351L34.921 120.224L41.1229 115.431L41.7219 116.242L36.542 120.224L43.2019 118.215L43.7657 118.92L40.0658 124.804L45.2457 120.823L45.8447 121.633L39.6077 126.39Z" fill="#FFFCF6"/>
<path d="M32.4182 115.961L31.9249 115.045L38.8315 111.31L39.3249 112.226L32.4182 115.961Z" fill="#FFFCF6"/>
<path d="M32.2762 103.134C34.1085 102.429 35.518 103.134 36.1523 104.966C36.8571 106.869 36.399 108.314 34.4257 109.019L29.7391 110.745L29.3867 109.759L34.0733 108.032C35.3771 107.574 35.7999 106.517 35.3066 105.248C34.8485 104.015 33.8619 103.592 32.5933 104.085L27.9067 105.812L27.5543 104.825L32.2762 103.134Z" fill="#FFFCF6"/>
<path d="M26.2513 99.9261L26.0399 98.5166L32.1712 95.0633L25.2999 93.6186L25.0885 92.2091L32.8407 91.011L32.9817 91.9976L26.5685 92.9843L33.3693 94.429L33.475 95.31L27.4142 98.6928L33.8274 97.7061L33.9683 98.6928L26.2513 99.9261Z" fill="#FFFCF6"/>
<path d="M25.1245 81.2503L25.6531 77.6208C25.8645 76.1408 26.7807 75.3656 28.014 75.5418C28.9302 75.6827 29.6702 76.2113 29.7759 77.1627C30.093 76.2817 30.7625 76.176 31.5378 76.2465C32.313 76.317 33.1587 76.4579 33.7225 76.1056L33.5463 77.2684C33.1587 77.5151 32.3835 77.2332 31.573 77.2684C30.7978 77.2684 30.1283 77.3741 29.9873 78.3608L29.6349 80.8979L32.9473 81.3912L32.8063 82.4483L25.1245 81.2503ZM29.1416 78.5722C29.2826 77.5855 29.1416 76.7398 28.014 76.5989C27.274 76.4932 26.6397 76.8456 26.4988 77.7617L26.1112 80.3341L28.8245 80.7217L29.1416 78.5722Z" fill="#FFFCF6"/>
<path d="M27.9784 67.4016C28.7889 65.0406 31.0441 64.4768 33.0879 65.1816C35.0964 65.8511 36.5764 67.6835 35.766 70.0444C34.9555 72.4053 32.7003 72.9691 30.6565 72.2643C28.6127 71.6301 27.1679 69.7625 27.9784 67.4016ZM34.885 69.7977C35.4841 68.0006 34.1803 66.6968 32.7003 66.2035C31.2203 65.7102 29.3879 65.9216 28.7889 67.7187C28.1898 69.5158 29.4936 70.8196 30.9736 71.3129C32.4536 71.8062 34.286 71.5948 34.885 69.7977Z" fill="#FFFCF6"/>
<path d="M32.8406 56.7611C34.074 54.6116 36.4349 54.5059 38.2673 55.563C40.0997 56.6201 41.192 58.6991 39.9235 60.8839C38.6549 63.0686 36.3292 63.139 34.4968 62.0819C32.6644 60.9543 31.572 58.8753 32.8406 56.7611ZM39.1835 60.4258C40.1349 58.7696 39.113 57.2544 37.7739 56.4792C36.3997 55.6687 34.6025 55.563 33.6159 57.1839C32.6644 58.8401 33.6863 60.3553 35.0254 61.1305C36.3997 61.941 38.1968 62.0467 39.1835 60.4258Z" fill="#FFFCF6"/>
<path d="M37.669 49.7476L38.6204 48.6552L45.1393 51.2275L41.9327 44.9905L42.8841 43.8981L48.6983 49.1485L48.0288 49.8885L43.166 45.519L46.3726 51.6856L45.7736 52.3551L39.2899 49.818L44.1527 54.1875L43.4832 54.9275L37.669 49.7476Z" fill="#FFFCF6"/>
<path d="M51.6947 39.6699C50.9195 38.8242 50.0386 38.93 49.1929 39.5642C48.5234 40.0928 47.9596 40.868 48.5938 41.7137C49.1576 42.489 50.2852 41.8547 51.4481 41.3261C52.6109 40.7975 53.8795 40.3747 54.7956 41.6433C55.7823 42.9823 54.9014 44.4975 53.7738 45.3432C52.3643 46.4003 50.6729 46.6118 49.51 45.0965L50.3205 44.4975C51.0957 45.5546 52.3643 45.3432 53.2804 44.6385C54.0557 44.0746 54.6899 43.2289 53.9852 42.3128C53.3509 41.4671 52.2233 42.0309 51.0605 42.5594C49.8976 43.088 48.6643 43.5461 47.8186 42.4185C46.8319 41.1499 47.5719 39.7052 48.6995 38.8595C49.9681 37.8728 51.4128 37.7671 52.47 39.1061L51.6947 39.6699Z" fill="#FFFCF6"/>
<path d="M58.3171 40.6571L59.3747 40.0931L59.9388 41.1506L58.8811 41.7147L58.3171 40.6571Z" fill="#FFFCF6"/>
<path d="M65.895 29.9797L68.6435 29.2045C69.3131 29.0283 70.194 28.7816 70.6873 28.9226C71.2511 29.0635 71.8149 29.4864 72.0264 30.2616C72.273 31.0721 71.9911 31.7768 71.3568 32.2701C72.3435 32.1997 73.0483 32.7635 73.2949 33.7149C73.6121 34.8073 73.0835 36.1111 71.6035 36.5339L67.974 37.5558L65.895 29.9797ZM68.7493 36.3577L71.2864 35.653C72.1673 35.4063 72.5549 34.7368 72.3435 33.8911C72.0616 32.9044 71.1807 32.8692 70.335 33.0806L68.0445 33.7501L68.7493 36.3577ZM67.7978 32.9397L69.8064 32.4111C70.9692 32.094 71.2864 31.5654 71.0749 30.7902C70.793 29.733 70.0178 29.8035 69.1369 30.0502L67.1283 30.5787L67.7978 32.9397Z" fill="#FFFCF6"/>
<path d="M78.5095 27.3024L79.6724 27.1967L83.4428 34.7022L82.2799 34.808L81.2228 32.5528L77.9457 32.8699L77.2762 35.3013L76.1838 35.407L78.5095 27.3024ZM78.1571 31.9537L80.8 31.7071L79.1438 28.2185L78.1571 31.9537Z" fill="#FFFCF6"/>
<path d="M86.7204 26.9124L87.8127 27.0181L91.3718 33.678L91.9003 27.3705L92.887 27.441L92.2527 35.2637L91.1251 35.1932L87.5661 28.6038L87.0375 34.8408L86.0508 34.7704L86.7204 26.9124Z" fill="#FFFCF6"/>
<path d="M97.855 28.3236L98.8416 28.6055L97.8197 32.3759L102.683 29.6274L103.951 29.9798L99.934 32.1645L102.013 37.5558L100.744 37.2035L99.0531 32.6226L97.4674 33.433L96.7274 36.0759L95.7407 35.794L97.855 28.3236Z" fill="#FFFCF6"/>
<path d="M113.219 34.0314L114.1 34.5599L112.338 37.4494L115.862 39.5637L117.624 36.6742L118.505 37.2028L114.417 43.8979L113.537 43.3694L115.404 40.3037L111.88 38.1894L110.013 41.2551L109.132 40.7265L113.219 34.0314Z" fill="#FFFCF6"/>
<path d="M125.199 42.3477C127.031 44.0391 126.644 46.3295 125.199 47.9152C123.754 49.5009 121.534 50.0999 119.667 48.4438C117.799 46.7876 118.222 44.462 119.667 42.8763C121.111 41.2906 123.331 40.6916 125.199 42.3477ZM120.266 47.7743C121.675 49.0428 123.402 48.3733 124.424 47.2105C125.446 46.0476 126.009 44.2858 124.6 43.0172C123.19 41.7487 121.464 42.4182 120.442 43.581C119.42 44.7439 118.856 46.5057 120.266 47.7743Z" fill="#FFFCF6"/>
<path d="M131.224 50.3465L129.638 48.2675L130.308 47.7389L134.149 52.7074L133.479 53.236L131.894 51.157L126.397 55.3855L125.762 54.5398L131.224 50.3465Z" fill="#FFFCF6"/>
<path d="M136.3 56.125L138.873 60.8821L138.097 61.3049L136.018 57.464L133.834 58.6621L135.772 62.2211L134.997 62.6439L133.058 59.085L130.697 60.3887L132.812 64.2648L132.037 64.6877L129.429 59.8954L136.3 56.125Z" fill="#FFFCF6"/>
<path d="M140.634 64.9705L140.986 65.9572L134.432 68.2829L135.806 72.1943L134.96 72.4762L133.234 67.5781L140.634 64.9705Z" fill="#FFFCF6"/>
</g>
<path d="M70.7287 84.3583C69.6252 84.2054 68.9026 83.1175 69.189 82.0403C69.4562 81.0349 70.5439 80.4956 71.5067 80.891L84.6446 86.2876L70.7287 84.3583Z" fill="#FCD043"/>
<path d="M86.4761 72.4105C86.6244 71.2831 87.7283 70.5466 88.8254 70.843C89.8495 71.1197 90.4008 72.2343 89.9988 73.2153L84.6538 86.2601L86.4761 72.4105Z" fill="#FCD043"/>
<path d="M76.2032 75.0829C75.5194 74.1847 75.7706 72.8959 76.738 72.3386C77.6409 71.8184 78.8018 72.2174 79.2101 73.1881L84.7038 86.2498L76.2032 75.0829Z" fill="#FCD043"/>
<path d="M95.8234 77.7421C96.7158 77.0615 98.0088 77.3286 98.5769 78.3109C99.1072 79.2277 98.72 80.3954 97.7523 80.7977L84.7043 86.2218L95.8234 77.7421Z" fill="#FCD043"/>
<path d="M98.5408 88.181C99.6443 88.3339 100.367 89.4218 100.081 90.499C99.8133 91.5044 98.7256 92.0437 97.7629 91.6483L84.6251 86.2517L98.5408 88.181Z" fill="#FCD043"/>
<path d="M82.7945 100.129C82.6461 101.256 81.5422 101.993 80.4451 101.696C79.421 101.42 78.8697 100.305 79.2717 99.324L84.6167 86.2792L82.7945 100.129Z" fill="#FCD043"/>
<path d="M93.1806 97.3964C93.8643 98.2946 93.6132 99.5833 92.6458 100.141C91.7429 100.661 90.5819 100.262 90.1736 99.2911L84.6799 86.2294L93.1806 97.3964Z" fill="#FCD043"/>
<path d="M73.5633 94.7311C72.6709 95.4117 71.3779 95.1446 70.8098 94.1623C70.2795 93.2455 70.6667 92.0778 71.6344 91.6755L84.6824 86.2513L73.5633 94.7311Z" fill="#FCD043"/>
</svg>
