<svg width="183" height="184" viewBox="0 0 183 184" fill="none" xmlns="http://www.w3.org/2000/svg">
<g id="label">
<g id="text">
<g id="Vector">
<path d="M5.33025 82.5748L6.91596 78.6105C7.66476 76.8046 9.03023 76.2319 10.704 76.8486C12.4219 77.5093 13.0385 78.9188 12.2897 80.7248L11.1885 83.4998L14.9326 84.9533L14.4481 86.1426L5.33025 82.5748ZM10.1755 83.1033L11.1445 80.7248C11.7171 79.3593 11.3207 78.5224 10.2636 78.0819C9.20642 77.6415 8.36952 78.0379 7.7969 79.4033L6.82786 81.7819L10.1755 83.1033Z" fill="#1B3B36"/>
<path d="M5.33025 82.5748L6.91596 78.6105C7.66476 76.8046 9.03023 76.2319 10.704 76.8486C12.4219 77.5093 13.0385 78.9188 12.2897 80.7248L11.1885 83.4998L14.9326 84.9533L14.4481 86.1426L5.33025 82.5748ZM10.1755 83.1033L11.1445 80.7248C11.7171 79.3593 11.3207 78.5224 10.2636 78.0819C9.20642 77.6415 8.36952 78.0379 7.7969 79.4033L6.82786 81.7819L10.1755 83.1033Z" fill="black" fill-opacity="0.2"/>
</g>
<g id="Vector_2">
<path d="M10.6173 70.7719L13.0399 66.8517C14.0089 65.266 15.4625 64.8696 16.7839 65.6625C17.753 66.2791 18.3696 67.2482 18.0172 68.3934C18.8101 67.5124 19.6029 67.7767 20.4839 68.2172C21.3648 68.6577 22.2458 69.2743 23.0827 69.1422L22.2898 70.3755C21.7613 70.4636 20.9684 69.7589 20.0875 69.4065C19.2065 69.0541 18.4137 68.7898 17.7089 69.847L16.0351 72.5779L19.5589 74.7803L18.8982 75.8814L10.6173 70.7719ZM16.5196 69.7148C17.1803 68.7017 17.4446 67.6446 16.2553 66.8958C15.4184 66.4113 14.5815 66.4553 13.9208 67.4684L12.203 70.2434L15.1101 72.0053L16.5196 69.7148Z" fill="#1B3B36"/>
<path d="M10.6173 70.7719L13.0399 66.8517C14.0089 65.266 15.4625 64.8696 16.7839 65.6625C17.753 66.2791 18.3696 67.2482 18.0172 68.3934C18.8101 67.5124 19.6029 67.7767 20.4839 68.2172C21.3648 68.6577 22.2458 69.2743 23.0827 69.1422L22.2898 70.3755C21.7613 70.4636 20.9684 69.7589 20.0875 69.4065C19.2065 69.0541 18.4137 68.7898 17.7089 69.847L16.0351 72.5779L19.5589 74.7803L18.8982 75.8814L10.6173 70.7719ZM16.5196 69.7148C17.1803 68.7017 17.4446 67.6446 16.2553 66.8958C15.4184 66.4113 14.5815 66.4553 13.9208 67.4684L12.203 70.2434L15.1101 72.0053L16.5196 69.7148Z" fill="black" fill-opacity="0.2"/>
</g>
<g id="Vector_3">
<path d="M18.1481 59.6274L22.6409 54.606L23.4778 55.3549L19.8659 59.4072L22.2004 61.4774L25.548 57.6894L26.3849 58.4382L22.9492 62.2262L25.4599 64.4727L29.1159 60.3762L29.9528 61.1251L25.4159 66.1905L18.1481 59.6274Z" fill="#1B3B36"/>
<path d="M18.1481 59.6274L22.6409 54.606L23.4778 55.3549L19.8659 59.4072L22.2004 61.4774L25.548 57.6894L26.3849 58.4382L22.9492 62.2262L25.4599 64.4727L29.1159 60.3762L29.9528 61.1251L25.4159 66.1905L18.1481 59.6274Z" fill="black" fill-opacity="0.2"/>
</g>
<g id="Vector_4">
<path d="M26.8234 50.5099L28.2329 49.4528L35.6769 54.0778L33.1222 45.7088L34.5317 44.6516L40.5222 52.404L39.5091 53.1528L34.5317 46.6778L37.0424 55.0028L36.1615 55.7075L28.8056 51.0826L33.7829 57.5575L32.7698 58.3063L26.8234 50.5099Z" fill="#1B3B36"/>
<path d="M26.8234 50.5099L28.2329 49.4528L35.6769 54.0778L33.1222 45.7088L34.5317 44.6516L40.5222 52.404L39.5091 53.1528L34.5317 46.6778L37.0424 55.0028L36.1615 55.7075L28.8056 51.0826L33.7829 57.5575L32.7698 58.3063L26.8234 50.5099Z" fill="black" fill-opacity="0.2"/>
</g>
<g id="Vector_5">
<path d="M39.8649 41.526L41.0102 40.9094L45.6792 49.5427L44.534 50.1593L39.8649 41.526Z" fill="#1B3B36"/>
<path d="M39.8649 41.526L41.0102 40.9094L45.6792 49.5427L44.534 50.1593L39.8649 41.526Z" fill="black" fill-opacity="0.2"/>
</g>
<g id="Vector_6">
<path d="M55.8956 41.35C56.7765 43.6404 55.8956 45.4023 53.6051 46.1952C51.2266 47.0761 49.4206 46.5035 48.5397 44.0369L46.3814 38.1786L47.6147 37.7381L49.773 43.5964C50.3456 45.2262 51.667 45.7547 53.2528 45.1381C54.7944 44.5654 55.323 43.3321 54.7063 41.7464L52.548 35.8881L53.7813 35.4476L55.8956 41.35Z" fill="#1B3B36"/>
<path d="M55.8956 41.35C56.7765 43.6404 55.8956 45.4023 53.6051 46.1952C51.2266 47.0761 49.4206 46.5035 48.5397 44.0369L46.3814 38.1786L47.6147 37.7381L49.773 43.5964C50.3456 45.2262 51.667 45.7547 53.2528 45.1381C54.7944 44.5654 55.323 43.3321 54.7063 41.7464L52.548 35.8881L53.7813 35.4476L55.8956 41.35Z" fill="black" fill-opacity="0.2"/>
</g>
<g id="Vector_7">
<path d="M59.9049 33.8156L61.6668 33.5513L65.9834 41.2155L67.7894 32.6263L69.5513 32.362L71.0489 42.0524L69.8156 42.2286L68.5822 34.212L66.7763 42.7131L65.6751 42.8453L61.4466 35.2691L62.6799 43.2857L61.4466 43.4619L59.9049 33.8156Z" fill="#1B3B36"/>
<path d="M59.9049 33.8156L61.6668 33.5513L65.9834 41.2155L67.7894 32.6263L69.5513 32.362L71.0489 42.0524L69.8156 42.2286L68.5822 34.212L66.7763 42.7131L65.6751 42.8453L61.4466 35.2691L62.6799 43.2857L61.4466 43.4619L59.9049 33.8156Z" fill="black" fill-opacity="0.2"/>
</g>
<g id="Vector_8">
<path d="M83.2492 32.4063L87.7861 33.067C89.636 33.3313 90.6051 34.4766 90.3848 36.0182C90.2087 37.1635 89.548 38.0884 88.3587 38.2206C89.4599 38.617 89.592 39.4539 89.5039 40.423C89.4158 41.392 89.2396 42.4491 89.6801 43.1539L88.2265 42.9337C87.9182 42.4491 88.2706 41.4801 88.2265 40.467C88.2265 39.498 88.0944 38.6611 86.8611 38.4849L83.6897 38.0444L83.073 42.1848L81.7516 42.0087L83.2492 32.4063ZM86.5968 37.4277C87.8301 37.6039 88.8872 37.4277 89.0634 36.0182C89.1956 35.0932 88.7551 34.3004 87.6099 34.1242L84.3944 33.6397L83.9099 37.0313L86.5968 37.4277Z" fill="#1B3B36"/>
<path d="M83.2492 32.4063L87.7861 33.067C89.636 33.3313 90.6051 34.4766 90.3848 36.0182C90.2087 37.1635 89.548 38.0884 88.3587 38.2206C89.4599 38.617 89.592 39.4539 89.5039 40.423C89.4158 41.392 89.2396 42.4491 89.6801 43.1539L88.2265 42.9337C87.9182 42.4491 88.2706 41.4801 88.2265 40.467C88.2265 39.498 88.0944 38.6611 86.8611 38.4849L83.6897 38.0444L83.073 42.1848L81.7516 42.0087L83.2492 32.4063ZM86.5968 37.4277C87.8301 37.6039 88.8872 37.4277 89.0634 36.0182C89.1956 35.0932 88.7551 34.3004 87.6099 34.1242L84.3944 33.6397L83.9099 37.0313L86.5968 37.4277Z" fill="black" fill-opacity="0.2"/>
</g>
<g id="Vector_9">
<path d="M100.56 35.9741C103.511 36.9872 104.216 39.8062 103.335 42.3609C102.498 44.8716 100.208 46.7216 97.2567 45.7085C94.3055 44.6955 93.6007 41.8764 94.4817 39.3217C95.2745 36.7669 97.609 34.961 100.56 35.9741ZM97.565 44.6074C99.8114 45.3562 101.441 43.7264 102.058 41.8764C102.674 40.0264 102.41 37.736 100.164 36.9872C97.9174 36.2384 96.2876 37.8681 95.671 39.7181C95.0543 41.5681 95.3186 43.8585 97.565 44.6074Z" fill="#1B3B36"/>
<path d="M100.56 35.9741C103.511 36.9872 104.216 39.8062 103.335 42.3609C102.498 44.8716 100.208 46.7216 97.2567 45.7085C94.3055 44.6955 93.6007 41.8764 94.4817 39.3217C95.2745 36.7669 97.609 34.961 100.56 35.9741ZM97.565 44.6074C99.8114 45.3562 101.441 43.7264 102.058 41.8764C102.674 40.0264 102.41 37.736 100.164 36.9872C97.9174 36.2384 96.2876 37.8681 95.671 39.7181C95.0543 41.5681 95.3186 43.8585 97.565 44.6074Z" fill="black" fill-opacity="0.2"/>
</g>
<g id="Vector_10">
<path d="M113.863 42.0526C116.55 43.5943 116.682 46.5455 115.36 48.8359C114.039 51.1264 111.44 52.4919 108.709 50.9061C105.978 49.3204 105.89 46.4133 107.212 44.1229C108.621 41.8324 111.22 40.4669 113.863 42.0526ZM109.282 49.9812C111.352 51.1704 113.246 49.8931 114.215 48.2193C115.228 46.5014 115.36 44.255 113.334 43.0217C111.264 41.8324 109.37 43.1098 108.401 44.7836C107.388 46.5014 107.256 48.7478 109.282 49.9812Z" fill="#1B3B36"/>
<path d="M113.863 42.0526C116.55 43.5943 116.682 46.5455 115.36 48.8359C114.039 51.1264 111.44 52.4919 108.709 50.9061C105.978 49.3204 105.89 46.4133 107.212 44.1229C108.621 41.8324 111.22 40.4669 113.863 42.0526ZM109.282 49.9812C111.352 51.1704 113.246 49.8931 114.215 48.2193C115.228 46.5014 115.36 44.255 113.334 43.0217C111.264 41.8324 109.37 43.1098 108.401 44.7836C107.388 46.5014 107.256 48.7478 109.282 49.9812Z" fill="black" fill-opacity="0.2"/>
</g>
<g id="Vector_11">
<path d="M122.628 48.0888L123.994 49.2781L120.778 57.4269L128.575 53.4186L129.94 54.6078L123.377 61.8756L122.452 61.0387L127.914 54.9602L120.206 58.9685L119.369 58.2197L122.54 50.115L117.078 56.1935L116.153 55.3566L122.628 48.0888Z" fill="#1B3B36"/>
<path d="M122.628 48.0888L123.994 49.2781L120.778 57.4269L128.575 53.4186L129.94 54.6078L123.377 61.8756L122.452 61.0387L127.914 54.9602L120.206 58.9685L119.369 58.2197L122.54 50.115L117.078 56.1935L116.153 55.3566L122.628 48.0888Z" fill="black" fill-opacity="0.2"/>
</g>
<g id="Vector_12">
<path d="M135.226 65.6193C136.283 64.6502 136.151 63.5491 135.358 62.4919C134.698 61.655 133.729 60.9503 132.672 61.7431C131.703 62.4479 132.495 63.8574 133.156 65.311C133.817 66.7645 134.345 68.3502 132.76 69.4954C131.086 70.7288 129.192 69.6276 128.135 68.2181C126.813 66.4562 126.549 64.3419 128.443 62.8883L129.192 63.9014C127.87 64.8705 128.135 66.4562 129.016 67.6014C129.72 68.5705 130.778 69.3633 131.923 68.4824C132.98 67.6895 132.275 66.28 131.614 64.8264C130.954 63.3729 130.381 61.8312 131.791 60.7741C133.376 59.5407 135.182 60.4657 136.239 61.8753C137.473 63.461 137.605 65.2669 135.931 66.5883L135.226 65.6193Z" fill="#1B3B36"/>
<path d="M135.226 65.6193C136.283 64.6502 136.151 63.5491 135.358 62.4919C134.698 61.655 133.729 60.9503 132.672 61.7431C131.703 62.4479 132.495 63.8574 133.156 65.311C133.817 66.7645 134.345 68.3502 132.76 69.4954C131.086 70.7288 129.192 69.6276 128.135 68.2181C126.813 66.4562 126.549 64.3419 128.443 62.8883L129.192 63.9014C127.87 64.8705 128.135 66.4562 129.016 67.6014C129.72 68.5705 130.778 69.3633 131.923 68.4824C132.98 67.6895 132.275 66.28 131.614 64.8264C130.954 63.3729 130.381 61.8312 131.791 60.7741C133.376 59.5407 135.182 60.4657 136.239 61.8753C137.473 63.461 137.605 65.2669 135.931 66.5883L135.226 65.6193Z" fill="black" fill-opacity="0.2"/>
</g>
<g id="Vector_13">
<path d="M133.993 73.9007L134.698 75.2222L133.376 75.9269L132.672 74.6055L133.993 73.9007Z" fill="#1B3B36"/>
<path d="M133.993 73.9007L134.698 75.2222L133.376 75.9269L132.672 74.6055L133.993 73.9007Z" fill="black" fill-opacity="0.2"/>
</g>
<g id="Vector_14">
<path d="M147.34 83.3699L148.309 86.8056C148.529 87.6425 148.837 88.7437 148.661 89.3604C148.485 90.0651 147.956 90.7699 146.987 91.0342C145.974 91.3425 145.093 90.9901 144.476 90.1973C144.565 91.4306 143.86 92.3116 142.671 92.6199C141.305 93.0163 139.675 92.3556 139.147 90.5056L137.869 85.9687L147.34 83.3699ZM139.367 86.9378L140.248 90.1092C140.556 91.2104 141.393 91.6949 142.45 91.4306C143.684 91.0782 143.728 89.9771 143.463 88.9199L142.627 86.0568L139.367 86.9378ZM143.64 85.7485L144.3 88.2592C144.697 89.7128 145.357 90.1092 146.326 89.8449C147.648 89.4925 147.56 88.5235 147.251 87.4223L146.591 84.9116L143.64 85.7485Z" fill="#1B3B36"/>
<path d="M147.34 83.3699L148.309 86.8056C148.529 87.6425 148.837 88.7437 148.661 89.3604C148.485 90.0651 147.956 90.7699 146.987 91.0342C145.974 91.3425 145.093 90.9901 144.476 90.1973C144.565 91.4306 143.86 92.3116 142.671 92.6199C141.305 93.0163 139.675 92.3556 139.147 90.5056L137.869 85.9687L147.34 83.3699ZM139.367 86.9378L140.248 90.1092C140.556 91.2104 141.393 91.6949 142.45 91.4306C143.684 91.0782 143.728 89.9771 143.463 88.9199L142.627 86.0568L139.367 86.9378ZM143.64 85.7485L144.3 88.2592C144.697 89.7128 145.357 90.1092 146.326 89.8449C147.648 89.4925 147.56 88.5235 147.251 87.4223L146.591 84.9116L143.64 85.7485Z" fill="black" fill-opacity="0.2"/>
</g>
<g id="Vector_15">
<path d="M150.684 99.1382L150.816 100.592L141.434 105.305L141.302 103.851L144.121 102.53L143.725 98.4335L140.686 97.5966L140.553 96.2311L150.684 99.1382ZM144.87 98.6978L145.178 102.001L149.539 99.9311L144.87 98.6978Z" fill="#1B3B36"/>
<path d="M150.684 99.1382L150.816 100.592L141.434 105.305L141.302 103.851L144.121 102.53L143.725 98.4335L140.686 97.5966L140.553 96.2311L150.684 99.1382ZM144.87 98.6978L145.178 102.001L149.539 99.9311L144.87 98.6978Z" fill="black" fill-opacity="0.2"/>
</g>
<g id="Vector_16">
<path d="M151.17 109.401L151.038 110.767L142.713 115.215L150.598 115.876L150.509 117.109L140.731 116.316L140.819 114.907L149.056 110.458L141.259 109.797L141.348 108.564L151.17 109.401Z" fill="#1B3B36"/>
<path d="M151.17 109.401L151.038 110.767L142.713 115.215L150.598 115.876L150.509 117.109L140.731 116.316L140.819 114.907L149.056 110.458L141.259 109.797L141.348 108.564L151.17 109.401Z" fill="black" fill-opacity="0.2"/>
</g>
<g id="Vector_17">
<path d="M149.407 123.32L149.055 124.553L144.342 123.276L147.778 129.354L147.337 130.94L144.606 125.919L137.867 128.518L138.307 126.932L144.034 124.818L143.02 122.835L139.717 121.91L140.069 120.677L149.407 123.32Z" fill="#1B3B36"/>
<path d="M149.407 123.32L149.055 124.553L144.342 123.276L147.778 129.354L147.337 130.94L144.606 125.919L137.867 128.518L138.307 126.932L144.034 124.818L143.02 122.835L139.717 121.91L140.069 120.677L149.407 123.32Z" fill="black" fill-opacity="0.2"/>
</g>
<g id="Vector_18">
<path d="M142.273 142.524L141.612 143.626L138 141.423L135.357 145.828L138.969 148.03L138.309 149.131L129.94 144.022L130.6 142.921L134.432 145.255L137.075 140.851L133.243 138.516L133.904 137.415L142.273 142.524Z" fill="#1B3B36"/>
<path d="M142.273 142.524L141.612 143.626L138 141.423L135.357 145.828L138.969 148.03L138.309 149.131L129.94 144.022L130.6 142.921L134.432 145.255L137.075 140.851L133.243 138.516L133.904 137.415L142.273 142.524Z" fill="black" fill-opacity="0.2"/>
</g>
<g id="Vector_19">
<path d="M131.878 157.501C129.764 159.791 126.901 159.307 124.919 157.501C122.937 155.695 122.188 152.92 124.258 150.585C126.328 148.251 129.235 148.779 131.217 150.585C133.2 152.391 133.948 155.166 131.878 157.501ZM125.095 151.334C123.509 153.096 124.346 155.254 125.8 156.532C127.253 157.809 129.456 158.514 131.041 156.752C132.627 154.99 131.79 152.832 130.337 151.554C128.883 150.277 126.681 149.572 125.095 151.334Z" fill="#1B3B36"/>
<path d="M131.878 157.501C129.764 159.791 126.901 159.307 124.919 157.501C122.937 155.695 122.188 152.92 124.258 150.585C126.328 148.251 129.235 148.779 131.217 150.585C133.2 152.391 133.948 155.166 131.878 157.501ZM125.095 151.334C123.509 153.096 124.346 155.254 125.8 156.532C127.253 157.809 129.456 158.514 131.041 156.752C132.627 154.99 131.79 152.832 130.337 151.554C128.883 150.277 126.681 149.572 125.095 151.334Z" fill="black" fill-opacity="0.2"/>
</g>
<g id="Vector_20">
<path d="M121.88 165.032L124.479 163.05L125.14 163.887L118.929 168.688L118.268 167.851L120.867 165.869L115.582 158.998L116.639 158.205L121.88 165.032Z" fill="#1B3B36"/>
<path d="M121.88 165.032L124.479 163.05L125.14 163.887L118.929 168.688L118.268 167.851L120.867 165.869L115.582 158.998L116.639 158.205L121.88 165.032Z" fill="black" fill-opacity="0.2"/>
</g>
<g id="Vector_21">
<path d="M114.656 171.377L108.71 174.592L108.181 173.623L112.982 171.024L111.485 168.294L107.036 170.716L106.507 169.747L110.956 167.324L109.326 164.373L104.481 167.016L103.953 166.047L109.943 162.788L114.656 171.377Z" fill="#1B3B36"/>
<path d="M114.656 171.377L108.71 174.592L108.181 173.623L112.982 171.024L111.485 168.294L107.036 170.716L106.507 169.747L110.956 167.324L109.326 164.373L104.481 167.016L103.953 166.047L109.943 162.788L114.656 171.377Z" fill="black" fill-opacity="0.2"/>
</g>
<g id="Vector_22">
<path d="M103.599 176.792L102.365 177.233L99.4583 169.04L94.569 170.758L94.2166 169.7L100.339 167.542L103.599 176.792Z" fill="#1B3B36"/>
<path d="M103.599 176.792L102.365 177.233L99.4583 169.04L94.569 170.758L94.2166 169.7L100.339 167.542L103.599 176.792Z" fill="black" fill-opacity="0.2"/>
</g>
</g>
<g id="icon">
<g id="Rectangle 93">
<path d="M90.7219 89.903C91.5821 88.7897 93.2245 88.6848 94.2194 89.6797C95.1479 90.6082 95.05 92.1411 94.011 92.944L80.0147 103.759L90.7219 89.903Z" fill="#FCD043"/>
</g>
<g id="Rectangle 95">
<path d="M93.8699 114.465C94.9831 115.326 95.088 116.968 94.0931 117.963C93.1646 118.891 91.6317 118.794 90.8288 117.754L80.0135 103.758L93.8699 114.465Z" fill="#FCD043"/>
</g>
<g id="Rectangle 97">
<path d="M97.3768 101.611C98.7724 101.432 100.008 102.519 100.008 103.926C100.008 105.239 98.8547 106.254 97.5522 106.087L80.0078 103.838L97.3768 101.611Z" fill="#FCD043"/>
</g>
<g id="Rectangle 99">
<path d="M82.2379 121.213C82.4168 122.609 81.3296 123.844 79.9227 123.844C78.6095 123.844 77.5948 122.691 77.7618 121.389L80.0111 103.844L82.2379 121.213Z" fill="#FCD043"/>
</g>
<g id="Rectangle 94">
<path d="M69.3016 117.613C68.4413 118.727 66.7989 118.832 65.8041 117.837C64.8755 116.908 64.9734 115.375 66.0125 114.572L80.0087 103.757L69.3016 117.613Z" fill="#FCD043"/>
</g>
<g id="Rectangle 96">
<path d="M66.1536 93.051C65.0403 92.1907 64.9354 90.5483 65.9303 89.5535C66.8588 88.6249 68.3917 88.7228 69.1946 89.7619L80.0099 103.758L66.1536 93.051Z" fill="#FCD043"/>
</g>
<g id="Rectangle 98">
<path d="M62.6398 106.067C61.2442 106.246 60.0088 105.159 60.0088 103.752C60.0088 102.439 61.1619 101.424 62.4644 101.591L80.0088 103.84L62.6398 106.067Z" fill="#FCD043"/>
</g>
<g id="Rectangle 100">
<path d="M77.7836 86.471C77.6047 85.0754 78.6919 83.84 80.0988 83.84C81.412 83.84 82.4267 84.9931 82.2597 86.2956L80.0104 103.84L77.7836 86.471Z" fill="#FCD043"/>
</g>
</g>
</g>
</svg>
